<svg xmlns="http://www.w3.org/2000/svg" viewBox="0 0 45 45"><g fill="#000" fill-rule="evenodd" stroke="#000" stroke-width="1.5" stroke-linecap="round" stroke-linejoin="round"><path d="M22.5 11.63V6M22.5 25s4.5-7.5 4.5-10.5c0-2.49-2.01-4.5-4.5-4.5s-4.5 2.01-4.5 4.5c0 3 4.5 10.5 4.5 10.5z" stroke-linecap="butt" stroke-linejoin="miter"/><path d="M22.5 25h-9s2.25-3 4.5-3 4.5 3 4.5 3zM22.5 25h9s-2.25-3-4.5-3-4.5 3-4.5 3z" stroke-linecap="butt" stroke-linejoin="miter"/><path d="M13.5 26.5s1.5-1.5 4.5-1.5 4.5 1.5 4.5 1.5-1.5 1.5-4.5 1.5-4.5-1.5-4.5-1.5z" fill-opacity="0"/><path d="M13.5 26.5c0 1.657 4.03 3 9 3s9-1.343 9-3" stroke-linecap="butt"/><path d="M13.5 29.5v-3" stroke-linecap="butt"/><path d="M31.5 29.5v-3" stroke-linecap="butt"/><path d="M13.5 29.5h18v3h-18z" stroke-linecap="butt"/><path d="M13.5 32.5h18v3h-18z" stroke-linecap="butt" stroke-linejoin="miter"/><path d="M13.5 35.5h18v3.5h-18z" stroke-linejoin="miter"/></g></svg>